# xmcd CD database file
#
# Track frame offsets:
#	150
#	14515
#	31115
#	53475
#	74420
#	98475
#	118750
#	137535
#	158095
#	180635
#	197400
#	229500
#
# Disc length: 3468 seconds
#
# Revision: 1
# Processed by: cddbd v1.5.2PL0 Copyright (c) Steve Scherf et al.
# Submitted via: CDex 1.51
#
DISCID=8d0d8a0c
DTITLE=Bullmoose - Lessons Learned
DYEAR=2003
DGENRE=
TTITLE0=Young Blood Blues
TTITLE1=Pray
TTITLE2=Shades of Green
TTITLE3=Poor Mans Hash
TTITLE4=Lessons Learned
TTITLE5=Dont Wanna Fight
TTITLE6=We'll Take Your Questions Now
TTITLE7=Needs
TTITLE8=Testify
TTITLE9=Daily Dillema
TTITLE10=Hypoxia
TTITLE11=Quebecois Blonde
EXTD=YEAR: 2003
EXTT0=
EXTT1=
EXTT2=
EXTT3=
EXTT4=
EXTT5=
EXTT6=
EXTT7=
EXTT8=
EXTT9=
EXTT10=
EXTT11=
PLAYORDER=
